# xmcd
#
# Track frame offsets: 
#        150
#        6860
#        21885
#        40357
#        53327
#        67770
#        83557
#        98535
#        113935
#        117830
#        135210
#        153785
#        173760
#        181700
#        200915
#        218045
#
# Disc length: 3138 seconds
#
# Revision: 3
# Processed by: cddbd v1.5.1PL2 Copyright (c) Steve Scherf et al.
# Submitted via: ExactAudioCopy v0.95b4
#
DISCID=bb0c4010
DTITLE=big punisher - yeeeah baby
DYEAR=2000
DGENRE=Rap
TTITLE0=the creation
TTITLE1=watch those
TTITLE2=off with his head
TTITLE3=it's so hard
TTITLE4=we don't care
TTITLE5=new york giants
TTITLE6=my dick
TTITLE7=leather face
TTITLE8=air pun
TTITLE9=100%
TTITLE10=wrong ones
TTITLE11=laughing at you
TTITLE12=nigga shit
TTITLE13=ms. martin
TTITLE14=my turn
TTITLE15=you was wrong
EXTD=Rap YEAR: 2000
EXTT0=
EXTT1=
EXTT2=
EXTT3=
EXTT4=
EXTT5=
EXTT6=
EXTT7=
EXTT8=
EXTT9=
EXTT10=
EXTT11=
EXTT12=
EXTT13=
EXTT14=
EXTT15=
PLAYORDER=
